<?xml version="1.0" encoding="iso-8859-1"?>
<!-- Uploaded to: SVG Repo, www.svgrepo.com, Generator: SVG Repo Mixer Tools -->
<svg version="1.1" id="Layer_1" xmlns="http://www.w3.org/2000/svg" xmlns:xlink="http://www.w3.org/1999/xlink" 
	 viewBox="0 0 512.001 512.001" xml:space="preserve">
<path style="fill:#FED159;" d="M334.914,297.473v93.655c0,13.811-11.196,25.009-25.009,25.009H34.445
	c-13.811,0-25.009-11.196-25.009-25.009V237.79c0-13.811,11.196-25.009,25.009-25.009h58.01"/>
<polyline style="fill:#82DCC7;" points="411.588,96.061 504.486,96.061 504.486,297.473 92.46,297.473 92.46,96.061 382.45,96.061 
	"/>
<ellipse style="fill:#74CBB4;" cx="298.477" cy="196.766" rx="54.698" ry="69.017"/>
<rect x="9.438" y="339.286" style="fill:#65B4BB;" width="325.476" height="32.774"/>
<path d="M503.524,87.486h-92.897c-4.682,0-8.476,3.795-8.476,8.476s3.794,8.476,8.476,8.476h41.672
	c3.604,21.854,20.895,39.144,42.749,42.749v98.963c-21.854,3.604-39.145,20.895-42.749,42.749H142.724
	c-3.604-21.854-20.895-39.144-42.749-42.749v-98.963c21.854-3.604,39.144-20.895,42.749-42.749H381.49
	c4.682,0,8.476-3.795,8.476-8.476s-3.794-8.476-8.476-8.476H91.498c-4.681,0-8.476,3.795-8.476,8.476v201.412
	c0,4.681,3.795,8.476,8.476,8.476h233.978v24.863H16.952V237.69c0-9.116,7.417-16.533,16.533-16.533h29.757
	c4.681,0,8.476-3.795,8.476-8.476c0-4.681-3.795-8.476-8.476-8.476H33.484C15.022,204.207,0,219.227,0,237.691V391.03
	c0,18.463,15.022,33.484,33.484,33.484h275.46c18.464,0,33.484-15.02,33.484-33.484v-85.179h161.096
	c4.682,0,8.476-3.795,8.476-8.476V95.962C512,91.281,508.206,87.486,503.524,87.486z M308.945,407.562H33.484
	c-9.116,0-16.533-7.417-16.533-16.533v-10.59H52.11c4.681,0,8.476-3.795,8.476-8.476c0-4.681-3.795-8.476-8.476-8.476H16.952
	v-15.822h308.524v15.822H83.754c-4.681,0-8.476,3.795-8.476,8.476c0,4.681,3.795,8.476,8.476,8.476h241.723v10.59
	C325.476,400.146,318.06,407.562,308.945,407.562z M469.592,104.438h25.456v25.456C482.56,126.774,472.712,116.926,469.592,104.438z
	 M125.43,104.438c-3.12,12.488-12.968,22.336-25.456,25.456v-25.456H125.43z M99.974,263.442
	c12.488,3.12,22.336,12.968,25.456,25.456H99.974V263.442z M469.592,288.899c3.12-12.488,12.968-22.336,25.456-25.456v25.456
	H469.592z"/>
<path d="M234.337,196.669c0,42.727,28.34,77.488,63.174,77.488s63.174-34.762,63.174-77.488s-28.34-77.488-63.174-77.488
	S234.337,153.942,234.337,196.669z M343.734,196.669c0,33.379-20.736,60.536-46.222,60.536c-25.487,0-46.222-27.157-46.222-60.536
	s20.736-60.536,46.222-60.536C322.999,136.133,343.734,163.29,343.734,196.669z"/>
<path d="M470.807,177.458h-83.836c-4.682,0-8.476,3.795-8.476,8.476c0,4.681,3.794,8.476,8.476,8.476h83.836
	c4.682,0,8.476-3.795,8.476-8.476C479.283,181.253,475.489,177.458,470.807,177.458z"/>
<path d="M212.439,185.934c0-4.681-3.795-8.476-8.476-8.476h-83.837c-4.681,0-8.476,3.795-8.476,8.476
	c0,4.681,3.795,8.476,8.476,8.476h83.837C208.644,194.41,212.439,190.615,212.439,185.934z"/>
<path d="M470.807,206.341h-46.007c-4.682,0-8.476,3.795-8.476,8.476c0,4.681,3.794,8.476,8.476,8.476h46.007
	c4.682,0,8.476-3.795,8.476-8.476C479.283,210.136,475.489,206.341,470.807,206.341z"/>
<path d="M120.126,206.341c-4.681,0-8.476,3.795-8.476,8.476c0,4.681,3.795,8.476,8.476,8.476h46.007
	c4.681,0,8.476-3.795,8.476-8.476c0-4.681-3.795-8.476-8.476-8.476H120.126z"/>
<path d="M289.035,149.896v8.532h-16.067c-4.682,0-8.476,3.795-8.476,8.476v29.764c0,4.681,3.794,8.476,8.476,8.476h40.609v12.812
	h-40.609c-4.682,0-8.476,3.795-8.476,8.476c0,4.681,3.794,8.476,8.476,8.476h16.067v8.532c0,4.681,3.794,8.476,8.476,8.476
	s8.476-3.795,8.476-8.476v-8.532h16.066c4.682,0,8.476-3.795,8.476-8.476v-29.764c0-4.681-3.794-8.476-8.476-8.476h-40.609v-12.812
	h40.609c4.682,0,8.476-3.795,8.476-8.476c0-4.681-3.794-8.476-8.476-8.476h-16.066v-8.532c0-4.681-3.794-8.476-8.476-8.476
	S289.035,145.215,289.035,149.896z"/>
</svg>